<svg width="400" height="140" viewBox="0 0 400 140" fill="none" xmlns="http://www.w3.org/2000/svg">
<path d="M253.189 30.3534C260.124 23.1482 268.794 19.5456 279.197 19.5456C284.25 19.5456 288.956 20.5326 293.316 22.5066C297.774 24.3819 301.638 26.9975 304.908 30.3534C308.276 33.7092 310.902 37.6573 312.784 42.1975C314.667 46.6391 315.608 51.4261 315.608 56.5585C315.608 61.691 314.667 66.5274 312.784 71.0676C311.001 75.5092 308.474 79.4079 305.205 82.7637C301.935 86.1196 298.071 88.7845 293.613 90.7585C289.154 92.6338 284.349 93.5715 279.197 93.5715C273.946 93.5715 269.091 92.6338 264.632 90.7585C260.273 88.7845 256.458 86.1196 253.189 82.7637C249.919 79.4079 247.343 75.5092 245.461 71.0676C243.677 66.5274 242.786 61.691 242.786 56.5585C242.786 46.0962 246.253 37.3612 253.189 30.3534ZM279.197 31.9819C272.261 31.9819 266.663 34.2521 262.403 38.7923C258.242 43.3326 256.161 49.2547 256.161 56.5585C256.161 63.8624 258.242 69.7845 262.403 74.3248C266.663 78.865 272.261 81.1351 279.197 81.1351C286.231 81.1351 291.829 78.865 295.991 74.3248C300.152 69.6858 302.233 63.7637 302.233 56.5585C302.233 49.3534 300.152 43.4806 295.991 38.9404C291.829 34.3014 286.231 31.9819 279.197 31.9819Z" fill="#D1D1D1"/>
<path d="M265.683 90.5695C266.444 87.3082 269.363 85.0001 272.726 85.0001H286.762C290.125 85.0001 293.045 87.3082 293.806 90.5695L300.952 121.169C302.007 125.684 298.564 130 293.908 130H265.58C260.925 130 257.482 125.684 258.536 121.169L265.683 90.5695Z" fill="#D1D1D1"/>
<path d="M270.515 88.523C271.018 86.3421 272.967 84.7961 275.214 84.7961H284.274C286.522 84.7961 288.471 86.3421 288.973 88.523L296.186 119.832C296.879 122.838 294.585 125.705 291.487 125.705H268.002C264.904 125.705 262.61 122.838 263.302 119.832L270.515 88.523Z" fill="#666666"/>
<path d="M256.091 33.1927C262.224 26.8218 269.889 23.6364 279.088 23.6364C283.556 23.6364 287.717 24.5091 291.572 26.2545C295.514 27.9127 298.93 30.2254 301.821 33.1927C304.8 36.16 307.122 39.6509 308.786 43.6654C310.451 47.5927 311.283 51.8254 311.283 56.3636C311.283 60.9018 310.451 65.1781 308.786 69.1927C307.209 73.1199 304.975 76.5672 302.084 79.5345C299.193 82.5017 295.777 84.8581 291.834 86.6035C287.892 88.2617 283.643 89.0908 279.088 89.0908C274.445 89.0908 270.152 88.2617 266.21 86.6035C262.355 84.8581 258.982 82.5017 256.091 79.5345C253.2 76.5672 250.922 73.1199 249.258 69.1927C247.681 65.1781 246.893 60.9018 246.893 56.3636C246.893 47.1127 249.959 39.3891 256.091 33.1927ZM279.088 34.6327C272.955 34.6327 268.006 36.64 264.239 40.6545C260.559 44.6691 258.719 49.9054 258.719 56.3636C258.719 62.8218 260.559 68.0581 264.239 72.0726C268.006 76.0872 272.955 78.0945 279.088 78.0945C285.308 78.0945 290.258 76.0872 293.937 72.0726C297.616 67.9708 299.456 62.7345 299.456 56.3636C299.456 49.9927 297.616 44.8 293.937 40.7854C290.258 36.6836 285.308 34.6327 279.088 34.6327Z" fill="black"/>
<path d="M215.84 76.7636V13.6C215.84 11.6118 217.459 10 219.456 10H224.051C226.048 10 227.667 11.6118 227.667 13.6V76.7636C227.667 79.9054 228.017 82.4799 228.718 84.4872C229.506 86.4072 230.689 87.8035 232.266 88.6763C233.843 89.4617 235.376 89.9854 236.865 90.2472C237.535 90.3649 238.301 90.4561 239.165 90.5209C241.157 90.6702 242.779 92.2517 242.779 94.2399V98.0363C242.779 100.024 241.158 101.65 239.164 101.545C231.237 101.127 225.477 99.2813 221.885 96.0072C217.855 92.2545 215.84 85.8399 215.84 76.7636Z" fill="black"/>
<path d="M143.846 33.1927C149.978 26.8218 157.644 23.6364 166.842 23.6364C171.31 23.6364 175.471 24.5091 179.326 26.2545C183.268 27.9127 186.685 30.2254 189.576 33.1927C192.555 36.16 194.876 39.6509 196.541 43.6654C198.205 47.5927 199.037 51.8254 199.037 56.3636C199.037 60.9018 198.205 65.1781 196.541 69.1927C194.964 73.1199 192.73 76.5672 189.839 79.5345C186.948 82.5017 183.531 84.8581 179.589 86.6035C175.647 88.2617 171.398 89.0908 166.842 89.0908C162.199 89.0908 157.906 88.2617 153.964 86.6035C150.109 84.8581 146.737 82.5017 143.846 79.5345C140.955 76.5672 138.677 73.1199 137.012 69.1927C135.435 65.1781 134.647 60.9018 134.647 56.3636C134.647 47.1127 137.713 39.3891 143.846 33.1927ZM166.842 34.6327C160.71 34.6327 155.76 36.64 151.993 40.6545C148.314 44.6691 146.474 49.9054 146.474 56.3636C146.474 62.8218 148.314 68.0581 151.993 72.0726C155.76 76.0872 160.71 78.0945 166.842 78.0945C173.062 78.0945 178.012 76.0872 181.691 72.0726C185.371 67.9708 187.211 62.7345 187.211 56.3636C187.211 49.9927 185.371 44.8 181.691 40.7854C178.012 36.6836 173.062 34.6327 166.842 34.6327Z" fill="black"/>
<path d="M87.6159 82.3818C85.6189 82.3818 84 80.77 84 78.7818V46.6436C84 36.6073 85.8835 29.6691 89.6506 25.8291C91.4903 23.9091 93.7243 22.4691 96.3524 21.5091C98.9806 20.5491 101.258 19.9818 103.186 19.8073C105.201 19.6327 107.916 19.5455 111.333 19.5455H119.281C121.278 19.5455 122.897 21.1572 122.897 23.1455V26.9418C122.897 28.93 121.278 30.5418 119.281 30.5418H108.968C107.216 30.5418 105.858 30.5855 104.894 30.6727C103.93 30.76 102.791 31.0655 101.477 31.5891C100.163 32.1127 99.0244 32.9418 98.0608 34.0764C96.3963 36.1709 95.564 40.36 95.564 46.6436V78.7818C95.564 80.77 93.9451 82.3818 91.9481 82.3818H87.6159Z" fill="#D1D1D1"/>
<path d="M90.3537 85.109C88.3567 85.109 86.7378 83.4972 86.7378 81.509V49.3708C86.7378 39.3345 88.6213 32.3963 92.3884 28.5563C94.2281 26.6363 96.4621 25.1963 99.0902 24.2363C101.718 23.2763 103.996 22.7091 105.924 22.5345C107.938 22.36 110.654 22.2727 114.071 22.2727H122.019C124.016 22.2727 125.635 23.8845 125.635 25.8727V29.6691C125.635 31.6573 124.016 33.2691 122.019 33.2691H111.706C109.953 33.2691 108.595 33.3127 107.632 33.4C106.668 33.4872 105.529 33.7927 104.215 34.3163C102.901 34.84 101.762 35.669 100.799 36.8036C99.134 38.8981 98.3018 43.0872 98.3018 49.3708V81.509C98.3018 83.4972 96.6829 85.109 94.6859 85.109H90.3537Z" fill="#666666"/>
<path d="M93.091 87.8363C91.094 87.8363 89.4751 86.2245 89.4751 84.2363V52.0982C89.4751 42.0618 91.3586 35.1236 95.1257 31.2836C96.9654 29.3636 99.1994 27.9236 101.828 26.9636C104.456 26.0036 106.733 25.4364 108.661 25.2618C110.676 25.0873 113.392 25 116.808 25H124.756C126.753 25 128.372 26.6118 128.372 28.6V32.3963C128.372 34.3846 126.753 35.9963 124.756 35.9963H114.443C112.691 35.9963 111.333 36.04 110.369 36.1273C109.405 36.2145 108.267 36.52 106.953 37.0436C105.638 37.5673 104.5 38.3963 103.536 39.5309C101.871 41.6254 101.039 45.8145 101.039 52.0982V84.2363C101.039 86.2245 99.4202 87.8363 97.4232 87.8363H93.091Z" fill="black"/>
<path d="M94.2834 125.54C93.4908 125.54 92.7806 125.412 92.1526 125.156C91.5247 124.899 91.0203 124.52 90.6395 124.017C90.2689 123.515 90.0733 122.91 90.0527 122.202H92.8629C92.9041 122.602 93.0431 122.91 93.2798 123.125C93.5166 123.33 93.8254 123.433 94.2062 123.433C94.5974 123.433 94.9062 123.345 95.1327 123.171C95.3591 122.986 95.4724 122.735 95.4724 122.417C95.4724 122.151 95.3797 121.93 95.1944 121.756C95.0194 121.581 94.7981 121.438 94.5305 121.325C94.2732 121.212 93.9026 121.084 93.4188 120.94C92.7188 120.725 92.1475 120.51 91.7049 120.294C91.2622 120.079 90.8814 119.761 90.5623 119.34C90.2432 118.92 90.0836 118.371 90.0836 117.694C90.0836 116.689 90.449 115.904 91.1799 115.34C91.9107 114.766 92.8629 114.479 94.0364 114.479C95.2305 114.479 96.1929 114.766 96.9238 115.34C97.6546 115.904 98.0458 116.694 98.0973 117.71H95.2408C95.2202 117.361 95.0915 117.089 94.8547 116.894C94.618 116.689 94.3143 116.586 93.9438 116.586C93.6246 116.586 93.3673 116.674 93.1717 116.848C92.9761 117.012 92.8784 117.253 92.8784 117.571C92.8784 117.92 93.0431 118.192 93.3725 118.386C93.7019 118.581 94.2165 118.792 94.9165 119.017C95.6165 119.253 96.1826 119.479 96.615 119.694C97.0576 119.91 97.4385 120.222 97.7576 120.633C98.0767 121.043 98.2362 121.571 98.2362 122.217C98.2362 122.833 98.0767 123.392 97.7576 123.894C97.4488 124.397 96.9958 124.797 96.3988 125.094C95.8018 125.392 95.0966 125.54 94.2834 125.54Z" fill="#666666"/>
<path d="M107.288 116.74V118.925H110.824V120.956H107.288V123.325H111.287V125.433H104.648V114.633H111.287V116.74H107.288Z" fill="#666666"/>
<path d="M117.34 120.017C117.34 118.951 117.572 118.002 118.035 117.171C118.498 116.33 119.141 115.679 119.965 115.217C120.799 114.745 121.741 114.51 122.791 114.51C124.077 114.51 125.179 114.848 126.095 115.525C127.011 116.202 127.623 117.125 127.932 118.294H125.029C124.813 117.843 124.504 117.499 124.103 117.263C123.712 117.027 123.264 116.91 122.76 116.91C121.946 116.91 121.288 117.192 120.783 117.756C120.279 118.32 120.027 119.074 120.027 120.017C120.027 120.961 120.279 121.715 120.783 122.279C121.288 122.843 121.946 123.125 122.76 123.125C123.264 123.125 123.712 123.007 124.103 122.771C124.504 122.535 124.813 122.192 125.029 121.74H127.932C127.623 122.91 127.011 123.833 126.095 124.51C125.179 125.176 124.077 125.51 122.791 125.51C121.741 125.51 120.799 125.279 119.965 124.817C119.141 124.345 118.498 123.694 118.035 122.863C117.572 122.033 117.34 121.084 117.34 120.017Z" fill="#666666"/>
<path d="M136.93 114.633V121.094C136.93 121.74 137.089 122.238 137.408 122.586C137.728 122.935 138.196 123.11 138.814 123.11C139.431 123.11 139.905 122.935 140.234 122.586C140.563 122.238 140.728 121.74 140.728 121.094V114.633H143.368V121.079C143.368 122.043 143.163 122.858 142.751 123.525C142.339 124.192 141.783 124.694 141.083 125.033C140.394 125.371 139.622 125.54 138.767 125.54C137.913 125.54 137.146 125.376 136.467 125.048C135.797 124.71 135.267 124.207 134.876 123.54C134.485 122.863 134.289 122.043 134.289 121.079V114.633H136.93Z" fill="#666666"/>
<path d="M155.537 125.433L153.283 121.356H152.649V125.433H150.009V114.633H154.441C155.295 114.633 156.021 114.781 156.618 115.079C157.225 115.376 157.678 115.786 157.976 116.31C158.275 116.822 158.424 117.397 158.424 118.033C158.424 118.751 158.218 119.392 157.807 119.956C157.405 120.52 156.808 120.92 156.016 121.156L158.517 125.433H155.537ZM152.649 119.494H154.286C154.77 119.494 155.13 119.376 155.367 119.14C155.614 118.904 155.738 118.571 155.738 118.14C155.738 117.73 155.614 117.407 155.367 117.171C155.13 116.935 154.77 116.817 154.286 116.817H152.649V119.494Z" fill="#666666"/>
<path d="M167.509 116.74V118.925H171.044V120.956H167.509V123.325H171.508V125.433H164.868V114.633H171.508V116.74H167.509Z" fill="#666666"/>
<path d="M185.619 120.017C185.619 118.951 185.851 118.002 186.314 117.171C186.777 116.33 187.421 115.679 188.244 115.217C189.078 114.745 190.02 114.51 191.07 114.51C192.357 114.51 193.458 114.848 194.374 115.525C195.29 116.202 195.903 117.125 196.212 118.294H193.309C193.093 117.843 192.784 117.499 192.382 117.263C191.991 117.027 191.543 116.91 191.039 116.91C190.226 116.91 189.567 117.192 189.063 117.756C188.558 118.32 188.306 119.074 188.306 120.017C188.306 120.961 188.558 121.715 189.063 122.279C189.567 122.843 190.226 123.125 191.039 123.125C191.543 123.125 191.991 123.007 192.382 122.771C192.784 122.535 193.093 122.192 193.309 121.74H196.212C195.903 122.91 195.29 123.833 194.374 124.51C193.458 125.176 192.357 125.51 191.07 125.51C190.02 125.51 189.078 125.279 188.244 124.817C187.421 124.345 186.777 123.694 186.314 122.863C185.851 122.033 185.619 121.084 185.619 120.017Z" fill="#666666"/>
<path d="M212.003 114.633V125.433H209.363V120.986H205.255V125.433H202.615V114.633H205.255V118.863H209.363V114.633H212.003Z" fill="#666666"/>
<path d="M225.443 123.525H221.398L220.749 125.433H217.985L221.907 114.633H224.964L228.886 125.433H226.092L225.443 123.525ZM224.764 121.494L223.42 117.54L222.092 121.494H224.764Z" fill="#666666"/>
<path d="M242.664 114.633V116.74H239.792V125.433H237.152V116.74H234.28V114.633H242.664Z" fill="#666666"/>
</svg>
